<?xml version="1.0" encoding="UTF-8"?>
<svg xmlns="http://www.w3.org/2000/svg" xmlns:xlink="http://www.w3.org/1999/xlink" width="50pt" height="50pt" viewBox="0 0 50 50" version="1.1">
<g id="surface16616464">
<path style=" stroke:none;fill-rule:evenodd;fill:rgb(97.254902%,65.882355%,19.215687%);fill-opacity:1;" d="M 6.222656 2 C 3.917969 2 2 3.917969 2 6.222656 L 2 43.785156 C 2 46.082031 3.917969 48 6.222656 48 L 43.785156 48 C 46.082031 48 48 46.082031 48 43.785156 L 48 6.222656 C 48 3.917969 46.082031 2 43.785156 2 Z M 6.203125 4 L 43.796875 4 C 45.011719 4 46 4.988281 46 6.203125 L 46 43.796875 C 46 45.011719 45.011719 46 43.796875 46 L 6.203125 46 C 4.988281 46 4 45.011719 4 43.796875 L 4 6.203125 C 4 4.988281 4.988281 4 6.203125 4 Z M 34 8 C 33.804688 8 33.25 8.222656 33 9 L 22.015625 28 C 21.820312 28.195312 21.820312 28.382812 22.015625 28.578125 L 29 41 C 29.382812 41.730469 29.613281 41.988281 30 42 L 35 42 C 35.570312 42 36.371094 41.738281 36 41 L 28.914062 28.578125 C 28.726562 28.382812 28.726562 28.195312 28.914062 28 L 39.652344 9 C 39.847656 8.617188 39.382812 8 39 8 Z M 12.636719 13 C 12.050781 13 11.832031 13.28125 12.433594 14.457031 L 15.886719 20.78125 C 16.074219 20.980469 16.074219 21.167969 15.886719 21.355469 L 10.050781 31.742188 C 9.6875 32.378906 9.988281 32.984375 11 33 L 16 33 C 16.421875 32.972656 16.792969 32.515625 17 32 L 23 21.550781 C 23.1875 21.355469 23.1875 21.167969 23 20.980469 L 19 14 C 18.734375 13.421875 18.601562 13.019531 18 13 Z M 12.636719 13 "/>
</g>
</svg>
